<svg xmlns="http://www.w3.org/2000/svg" viewBox="0 0 572 480" role="img" aria-label="Escena narrativa: wall less door"><defs><linearGradient id="bg" x2="0" y2="1"><stop stop-color="#40318d" stop-opacity=".7"/><stop offset="1" stop-color="#070610"/></linearGradient><pattern id="grid" width="24" height="24" patternUnits="userSpaceOnUse"><path d="M24 0H0V24" fill="none" stroke="#ff6f91" stroke-opacity=".11"/></pattern></defs><rect width="572" height="480" fill="url(#bg)"/><rect width="572" height="480" fill="url(#grid)"/><path d="M18 18h44M18 18v44M554 18h-44M554 18v44M18 462h44M18 462v-44M554 462h-44M554 462v-44" fill="none" stroke="#ff6f91" stroke-width="4"/><g><path d="M144 433V196 Q144 88 286 88 Q428 88 428 196V433" fill="#14101e" stroke="#ff6f91" stroke-width="13"/><path d="M196 433V204 Q196 145 286 145 Q376 145 376 204V433" fill="#05050b" stroke="#40318d" stroke-width="9"/><path d="M32 432H140 M432 432H540" stroke="#ff6f91" stroke-width="7"/><circle cx="286" cy="266" r="59" fill="none" stroke="#bfce72" stroke-width="7" stroke-dasharray="10 8"/><path d="M249 265 Q286 232 323 265 Q305 301 286 303 Q267 301 249 265Z" fill="#6b8291"/><ellipse cx="286" cy="265" rx="11" ry="25" fill="#bfce72"/></g><path d="M36 448H536" stroke="#ff6f91" stroke-opacity=".4" stroke-width="2"/></svg>