<svg xmlns="http://www.w3.org/2000/svg" viewBox="0 0 572 512" role="img" aria-label="Entidad abisal: mirror saint"><defs><radialGradient id="bg"><stop stop-color="#476bba" stop-opacity=".63"/><stop offset="1" stop-color="#070610"/></radialGradient><pattern id="grid" width="16" height="16" patternUnits="userSpaceOnUse"><path d="M16 0H0V16" fill="none" stroke="#9ee7e5" stroke-opacity=".1" stroke-width="1"/></pattern></defs><rect width="572" height="512" fill="url(#bg)"/><rect width="572" height="512" fill="url(#grid)"/><path d="M18 18h42M18 18v42M554 18h-42M554 18v42M18 494h42M18 494v-42M554 494h-42M554 494v-42" fill="none" stroke="#9ee7e5" stroke-width="4" opacity=".8"/><g><path d="M286 119 L351 157 386 229 356 330 286 379 216 330 186 229 221 157Z" fill="#24253b" stroke="#9ee7e5" stroke-width="9"/><path d="M286 149 L330 179 348 231 328 301 286 332 244 301 224 231 242 179Z" fill="#759aa5" stroke="#d8f3df" stroke-width="7"/><path d="M241 237 Q286 211 331 237 L323 267 Q286 283 249 267Z" fill="#121c2a"/><path d="M286 113 L286 47 M219 144 L178 94 M353 144 L395 94 M185 229 L119 229 M387 229 L453 229" stroke="#476bba" stroke-width="9"/><path d="M205 365 L160 430 M367 365 L412 430 M236 376 L216 448 M336 376 L356 448" stroke="#9ee7e5" stroke-width="8"/><circle cx="286" cy="68" r="13" fill="#bfce72"/></g><path d="M36 466H536" stroke="#9ee7e5" stroke-opacity=".45" stroke-width="2"/><text x="286" y="491" text-anchor="middle" fill="#9ee7e5" font-family="monospace" font-size="16" letter-spacing="4">MIRROR-SAINT</text></svg>